<?xml version="1.0" encoding="UTF-8"?>
<svg xmlns="http://www.w3.org/2000/svg" xmlns:xlink="http://www.w3.org/1999/xlink" viewBox="0 0 1200 630">
  <defs>
    <style>
      .cls-1, .cls-2, .cls-3 {
        fill: none;
      }

      .cls-4 {
        fill: url(#_êVãKÉpÉ_Å_ÉìÉXÉEÉHÉbÉ_11);
        mix-blend-mode: screen;
      }

      .cls-5 {
        stroke-width: .66px;
      }

      .cls-5, .cls-6, .cls-2, .cls-7, .cls-3 {
        stroke: #102634;
        stroke-linecap: round;
        stroke-linejoin: round;
      }

      .cls-5, .cls-6, .cls-7 {
        fill: #102634;
      }

      .cls-6 {
        stroke-width: .75px;
      }

      .cls-8 {
        fill: url(#linear-gradient);
      }

      .cls-9 {
        isolation: isolate;
      }

      .cls-7, .cls-3 {
        stroke-width: .634px;
      }
    </style>
    <linearGradient id="linear-gradient" x1="600" y1="-24.061" x2="600" y2="648.281" gradientTransform="translate(1200 630) rotate(-180)" gradientUnits="userSpaceOnUse">
      <stop offset="0" stop-color="#294759"/>
      <stop offset=".76" stop-color="#0f1f29"/>
      <stop offset="1" stop-color="#07121a"/>
    </linearGradient>
    <pattern id="_êVãKÉpÉ_Å_ÉìÉXÉEÉHÉbÉ_11" data-name="êVãKÉpÉ^Å[ÉìÉXÉEÉHÉbÉ` 11" x="0" y="0" width="172.913" height="172.913" patternTransform="translate(8592.886 7317.553) scale(2)" patternUnits="userSpaceOnUse" viewBox="0 0 172.913 172.913">
      <g>
        <rect class="cls-1" y="0" width="172.913" height="172.913"/>
        <g>
          <g>
            <g>
              <path class="cls-7" d="M173.091,171.694c-.674,0-1.22.546-1.22,1.22s.546,1.22,1.22,1.22,1.22-.546,1.22-1.22-.546-1.22-1.22-1.22Z"/>
              <path class="cls-7" d="M173.091,137.453c-1.043,0-1.954,2.488-1.138,8.813.87,6.742,1.138,24.037,1.138,24.037,0,0,.268-17.295,1.138-24.037.816-6.325-.094-8.813-1.138-8.813Z"/>
              <path class="cls-7" d="M160.867,150.244c-.573.877,1.474,2.062,3.015,3.203,4.356,3.226,6.41,9.09,7.086,12.376,0,0-.602-7.374-5.676-13.247-2.294-2.655-4.012-2.963-4.424-2.332Z"/>
              <path class="cls-3" d="M164.223,155.077c-1.411,1.864-2.248,4.186-2.248,6.703,0,5.249,3.639,9.649,8.531,10.814"/>
              <path class="cls-7" d="M166.754,152.647s.913-.467,1.868.366c.335.293.988.545,1.185.147.38-.769-1.255-1.763-3.053-.513Z"/>
            </g>
            <g>
              <path class="cls-7" d="M137.631,172.914c0,1.043,2.488,1.954,8.813,1.138,6.742-.87,24.037-1.138,24.037-1.138,0,0-17.295-.268-24.037-1.138-6.325-.816-8.813.094-8.813,1.138Z"/>
              <path class="cls-7" d="M153.624,163.704c-1.141-1.541-2.326-3.587-3.203-3.015-.631.412-.324,2.13,2.332,4.425,5.873,5.074,13.247,5.676,13.247,5.676-3.286-.676-9.15-2.729-12.375-7.086Z"/>
              <path class="cls-3" d="M155.255,164.046c1.864-1.411,4.186-2.248,6.703-2.248,5.249,0,9.649,3.639,10.814,8.531"/>
              <path class="cls-7" d="M152.825,166.576c-1.25,1.798-.255,3.433.513,3.053.398-.197.146-.85-.147-1.185-.833-.955-.366-1.868-.366-1.868Z"/>
            </g>
          </g>
          <path class="cls-7" d="M154.046,152.373c-.826,0-1.496.67-1.496,1.496s.67,1.496,1.496,1.496,1.496-.67,1.496-1.496-.67-1.496-1.496-1.496Z"/>
          <g>
            <g>
              <g>
                <path class="cls-6" d="M86.457,137.437c-1.576,0-1.28,6.131-1.128,8.381s1.128,19.31,1.128,19.31c0-.757.975-17.06,1.127-19.31s.448-8.381-1.127-8.381Z"/>
                <path class="cls-6" d="M93.39,161.479c-.468.527-4.275,4.627-4.275,4.627,0,0,4.492-3.296,5.067-3.697.575-.402,2.099-1.546,1.546-2.195-.553-.65-1.87.738-2.338,1.266Z"/>
                <path class="cls-6" d="M77.186,160.214c-.553.65.971,1.793,1.546,2.195.575.402,5.067,3.697,5.067,3.697,0,0-3.807-4.1-4.275-4.627-.468-.527-1.785-1.915-2.338-1.266Z"/>
                <path class="cls-6" d="M93.274,149.265c-1.2-.408-2.151,3.129-2.467,4.438-.316,1.309-3.009,11.671-3.009,11.671,0,0,4.179-9.856,4.727-11.087.548-1.23,1.949-4.614.749-5.022Z"/>
                <path class="cls-6" d="M79.639,149.265c-1.2.408.201,3.792.749,5.022.548,1.23,4.727,11.087,4.727,11.087,0,0-2.693-10.361-3.009-11.671-.316-1.309-1.267-4.846-2.467-4.438Z"/>
                <circle class="cls-6" cx="86.457" cy="168.208" r="1.254"/>
              </g>
              <g>
                <path class="cls-6" d="M113.552,171.786c-2.25.152-18.553,1.128-19.31,1.128,0,0,17.06.975,19.31,1.127,2.25.152,8.381.448,8.381-1.127s-6.131-1.28-8.381-1.128Z"/>
                <path class="cls-6" d="M96.961,165.189c-.402.575-3.697,5.067-3.697,5.067,0,0,4.1-3.807,4.627-4.275.527-.468,1.915-1.785,1.265-2.338-.649-.553-1.793.971-2.195,1.546Z"/>
                <path class="cls-6" d="M105.083,166.845c-1.23.548-11.086,4.727-11.086,4.727,0,0,10.361-2.693,11.671-3.009,1.309-.316,4.846-1.267,4.438-2.467-.408-1.2-3.792.201-5.022.749Z"/>
                <circle class="cls-6" cx="91.162" cy="172.914" r="1.254"/>
              </g>
              <g>
                <path class="cls-6" d="M50.98,172.914c0,1.575,6.131,1.28,8.381,1.127,2.25-.152,18.553-1.127,19.31-1.127,0,0-17.06-.975-19.31-1.128s-8.381-.448-8.381,1.128Z"/>
                <path class="cls-6" d="M73.757,163.643c-.649.553.738,1.87,1.265,2.338.527.468,4.627,4.275,4.627,4.275,0,0-3.296-4.492-3.697-5.067-.402-.575-1.546-2.099-2.195-1.546Z"/>
                <path class="cls-6" d="M62.808,166.096c-.408,1.2,3.129,2.151,4.438,2.467,1.309.315,11.671,3.009,11.671,3.009,0,0-9.856-4.179-11.086-4.727-1.23-.548-4.614-1.949-5.022-.749Z"/>
                <circle class="cls-6" cx="81.751" cy="172.914" r="1.254"/>
              </g>
            </g>
            <circle class="cls-5" cx="86.457" cy="172.914" r="2.16"/>
          </g>
          <line class="cls-2" x1="109.432" y1="109.155" x2="127.125" y2="126.849"/>
          <line class="cls-2" x1="132.217" y1="131.941" x2="149.911" y2="149.634"/>
          <line class="cls-2" x1="127.125" y1="132.177" x2="99.893" y2="159.409"/>
          <line class="cls-2" x1="159.568" y1="99.735" x2="132.335" y2="126.967"/>
        </g>
        <g>
          <g>
            <g>
              <path class="cls-7" d="M.178,171.694c-.674,0-1.22.546-1.22,1.22s.546,1.22,1.22,1.22,1.22-.546,1.22-1.22-.546-1.22-1.22-1.22Z"/>
              <path class="cls-7" d="M.178,137.453c-1.043,0-1.954,2.488-1.138,8.813.87,6.742,1.138,24.037,1.138,24.037,0,0,.268-17.295,1.138-24.037.816-6.325-.095-8.813-1.138-8.813Z"/>
              <path class="cls-7" d="M7.978,152.575c-5.074,5.873-5.676,13.247-5.676,13.247.676-3.286,2.729-9.15,7.086-12.376,1.541-1.141,3.587-2.326,3.015-3.203-.412-.631-2.13-.324-4.424,2.332Z"/>
              <path class="cls-3" d="M9.046,155.077c1.411,1.864,2.248,4.186,2.248,6.703,0,5.249-3.639,9.649-8.531,10.814"/>
              <path class="cls-7" d="M3.463,153.16c.197.398.85.145,1.185-.147.954-.834,1.868-.366,1.868-.366-1.798-1.25-3.433-.255-3.053.513Z"/>
            </g>
            <path class="cls-3" d="M-17.659,164.046c1.864-1.411,4.186-2.248,6.703-2.248,5.249,0,9.649,3.639,10.814,8.531"/>
            <g>
              <path class="cls-7" d="M26.825,171.776c-6.742.87-24.037,1.138-24.037,1.138,0,0,17.295.268,24.037,1.138,6.325.816,8.813-.095,8.813-1.138s-2.489-1.954-8.813-1.138Z"/>
              <path class="cls-7" d="M19.645,163.704c-3.226,4.356-9.09,6.41-12.376,7.086,0,0,7.374-.602,13.247-5.676,2.655-2.294,2.963-4.012,2.332-4.425-.877-.573-2.062,1.474-3.203,3.015Z"/>
              <path class="cls-3" d="M18.015,164.046c-1.864-1.411-4.186-2.248-6.704-2.248-5.249,0-9.649,3.639-10.814,8.531"/>
              <path class="cls-7" d="M20.079,168.444c-.293.335-.545.988-.147,1.185.769.38,1.763-1.255.513-3.053,0,0,.467.913-.366,1.868Z"/>
            </g>
          </g>
          <path class="cls-7" d="M19.223,152.373c-.826,0-1.496.67-1.496,1.496s.67,1.496,1.496,1.496,1.496-.67,1.496-1.496-.67-1.496-1.496-1.496Z"/>
          <line class="cls-2" x1="63.527" y1="109.155" x2="45.833" y2="126.849"/>
          <line class="cls-2" x1="40.741" y1="131.941" x2="23.048" y2="149.634"/>
          <line class="cls-2" x1="45.833" y1="132.177" x2="73.066" y2="159.409"/>
          <line class="cls-2" x1="13.391" y1="99.735" x2="40.623" y2="126.967"/>
        </g>
        <g>
          <g>
            <g>
              <path class="cls-6" d="M172.913,50.981c-1.575,0-1.28,6.131-1.127,8.381s1.127,19.309,1.127,19.309c0-.757.975-17.059,1.127-19.309s.448-8.381-1.127-8.381Z"/>
              <path class="cls-6" d="M163.642,73.757c-.553.649.971,1.793,1.546,2.195.575.402,5.067,3.698,5.067,3.698,0,0-3.807-4.1-4.275-4.627-.468-.527-1.785-1.915-2.338-1.265Z"/>
              <path class="cls-6" d="M166.096,62.808c-1.2.408.201,3.792.749,5.022.548,1.23,4.727,11.086,4.727,11.086,0,0-2.693-10.361-3.009-11.671-.316-1.309-1.267-4.846-2.467-4.438Z"/>
              <circle class="cls-6" cx="172.913" cy="81.752" r="1.254"/>
            </g>
            <g>
              <path class="cls-6" d="M172.913,94.243c0,.757-.975,17.06-1.127,19.31s-.448,8.381,1.127,8.381,1.28-6.131,1.127-8.381-1.127-19.31-1.127-19.31Z"/>
              <path class="cls-6" d="M163.642,99.157c.553.65,1.87-.738,2.338-1.266.468-.527,4.275-4.627,4.275-4.627,0,0-4.492,3.296-5.067,3.697-.575.402-2.099,1.546-1.546,2.195Z"/>
              <path class="cls-6" d="M166.096,110.105c1.2.408,2.151-3.129,2.467-4.438s3.009-11.67,3.009-11.67c0,0-4.179,9.856-4.727,11.086-.548,1.231-1.949,4.614-.749,5.022Z"/>
              <circle class="cls-6" cx="172.913" cy="91.162" r="1.254"/>
            </g>
            <g>
              <path class="cls-6" d="M137.437,86.457c0,1.575,6.131,1.28,8.381,1.127,2.25-.152,18.553-1.127,19.31-1.127,0,0-17.06-.975-19.31-1.128s-8.381-.448-8.381,1.128Z"/>
              <path class="cls-6" d="M160.214,95.728c.649.553,1.793-.971,2.195-1.546s3.697-5.067,3.697-5.067c0,0-4.1,3.807-4.627,4.275-.527.468-1.915,1.785-1.265,2.338Z"/>
              <path class="cls-6" d="M160.214,77.186c-.65.553.738,1.87,1.265,2.338.527.468,4.627,4.275,4.627,4.275,0,0-3.296-4.492-3.697-5.067-.402-.575-1.546-2.099-2.195-1.546Z"/>
              <path class="cls-6" d="M149.265,93.274c.408,1.2,3.792-.201,5.022-.749,1.23-.548,11.086-4.727,11.086-4.727,0,0-10.361,2.693-11.671,3.009s-4.846,1.267-4.438,2.467Z"/>
              <path class="cls-6" d="M149.265,79.639c-.408,1.2,3.129,2.151,4.438,2.467,1.309.315,11.671,3.009,11.671,3.009,0,0-9.856-4.179-11.086-4.727-1.23-.548-4.614-1.949-5.022-.749Z"/>
              <circle class="cls-6" cx="168.208" cy="86.457" r="1.254"/>
            </g>
          </g>
          <circle class="cls-5" cx="172.913" cy="86.457" r="2.16"/>
        </g>
        <g>
          <g>
            <g>
              <path class="cls-7" d="M86.635,85.237c-.674,0-1.22.546-1.22,1.22s.546,1.22,1.22,1.22,1.22-.546,1.22-1.22-.546-1.22-1.22-1.22Z"/>
              <path class="cls-7" d="M86.635,50.997c-1.044,0-1.954,2.488-1.138,8.813.87,6.742,1.138,24.037,1.138,24.037,0,0,.268-17.295,1.138-24.037.816-6.325-.095-8.813-1.138-8.813Z"/>
              <path class="cls-7" d="M94.435,66.119c-5.074,5.873-5.676,13.247-5.676,13.247.676-3.286,2.729-9.15,7.086-12.376,1.54-1.141,3.587-2.326,3.015-3.203-.412-.631-2.13-.324-4.424,2.332Z"/>
              <path class="cls-3" d="M95.502,68.62c1.411,1.864,2.248,4.186,2.248,6.703,0,5.249-3.639,9.649-8.531,10.814"/>
              <path class="cls-7" d="M89.919,66.703c.197.398.85.146,1.185-.147.954-.834,1.868-.366,1.868-.366-1.798-1.25-3.433-.255-3.053.513Z"/>
              <path class="cls-7" d="M74.41,63.787c-.573.877,1.474,2.062,3.015,3.203,4.356,3.226,6.41,9.09,7.086,12.376,0,0-.602-7.374-5.676-13.247-2.294-2.655-4.012-2.963-4.424-2.332Z"/>
              <path class="cls-3" d="M77.767,68.62c-1.411,1.864-2.248,4.186-2.248,6.703,0,5.249,3.639,9.649,8.531,10.814"/>
              <path class="cls-7" d="M80.297,66.19s.913-.467,1.868.366c.335.293.988.545,1.185.147.38-.769-1.255-1.763-3.053-.513Z"/>
            </g>
            <g>
              <path class="cls-7" d="M86.635,89.067s-.268,17.295-1.138,24.037c-.816,6.325.094,8.813,1.138,8.813s1.954-2.488,1.138-8.813c-.87-6.742-1.138-24.037-1.138-24.037Z"/>
              <path class="cls-7" d="M95.845,105.924c-4.357-3.226-6.41-9.089-7.086-12.375,0,0,.602,7.374,5.676,13.247,2.294,2.655,4.012,2.963,4.424,2.332.573-.877-1.474-2.062-3.015-3.203Z"/>
              <path class="cls-3" d="M95.502,104.294c1.411-1.864,2.248-4.186,2.248-6.704,0-5.249-3.639-9.649-8.531-10.814"/>
              <path class="cls-7" d="M91.104,106.357c-.335-.293-.988-.545-1.185-.147-.38.769,1.255,1.763,3.053.513,0,0-.913.467-1.868-.366Z"/>
              <path class="cls-7" d="M77.425,105.924c-1.541,1.141-3.587,2.326-3.015,3.203.412.631,2.13.324,4.424-2.332,5.074-5.873,5.676-13.247,5.676-13.247-.676,3.286-2.729,9.15-7.086,12.375Z"/>
              <path class="cls-3" d="M77.767,104.294c-1.411-1.864-2.248-4.186-2.248-6.704,0-5.249,3.639-9.649,8.531-10.814"/>
              <path class="cls-7" d="M82.165,106.357c-.955.833-1.868.366-1.868.366,1.798,1.25,3.433.256,3.053-.513-.197-.398-.85-.146-1.185.147Z"/>
            </g>
            <g>
              <path class="cls-7" d="M51.174,86.457c0,1.043,2.488,1.954,8.813,1.138,6.742-.87,24.037-1.138,24.037-1.138,0,0-17.295-.268-24.037-1.138-6.325-.816-8.813.095-8.813,1.138Z"/>
              <path class="cls-7" d="M63.965,98.682c.877.573,2.062-1.474,3.203-3.015,3.225-4.357,9.089-6.41,12.375-7.086,0,0-7.374.602-13.247,5.676-2.655,2.294-2.963,4.012-2.332,4.424Z"/>
              <path class="cls-3" d="M68.798,95.325c1.864,1.411,4.186,2.248,6.703,2.248,5.249,0,9.649-3.639,10.814-8.531"/>
              <path class="cls-7" d="M66.881,89.741c-.769-.381-1.763,1.255-.513,3.053,0,0-.467-.913.366-1.868.293-.335.545-.988.147-1.185Z"/>
              <path class="cls-7" d="M67.168,77.247c-1.141-1.541-2.326-3.587-3.203-3.015-.631.412-.324,2.13,2.332,4.424,5.873,5.074,13.247,5.676,13.247,5.676-3.286-.676-9.15-2.729-12.375-7.086Z"/>
              <path class="cls-3" d="M68.798,77.589c1.864-1.411,4.186-2.248,6.703-2.248,5.249,0,9.649,3.639,10.814,8.531"/>
              <path class="cls-7" d="M66.368,80.119c-1.25,1.798-.255,3.433.513,3.053.398-.197.146-.85-.147-1.185-.833-.955-.366-1.868-.366-1.868Z"/>
            </g>
            <g>
              <path class="cls-7" d="M113.282,85.319c-6.742.87-24.037,1.138-24.037,1.138,0,0,17.295.268,24.037,1.138,6.325.816,8.813-.095,8.813-1.138s-2.488-1.954-8.813-1.138Z"/>
              <path class="cls-7" d="M106.973,94.257c-5.873-5.074-13.247-5.676-13.247-5.676,3.286.676,9.15,2.729,12.376,7.086,1.14,1.541,2.326,3.587,3.203,3.015.631-.412.324-2.13-2.332-4.424Z"/>
              <path class="cls-3" d="M104.471,95.325c-1.864,1.411-4.186,2.248-6.703,2.248-5.249,0-9.649-3.639-10.814-8.531"/>
              <path class="cls-7" d="M106.388,89.741c-.398.197-.146.85.147,1.185.833.955.366,1.868.366,1.868,1.25-1.798.255-3.433-.513-3.053Z"/>
              <path class="cls-7" d="M106.102,77.247c-3.226,4.356-9.09,6.41-12.376,7.086,0,0,7.374-.602,13.247-5.676,2.655-2.294,2.963-4.012,2.332-4.424-.877-.573-2.062,1.474-3.203,3.015Z"/>
              <path class="cls-3" d="M104.471,77.589c-1.864-1.411-4.186-2.248-6.703-2.248-5.249,0-9.649,3.639-10.814,8.531"/>
              <path class="cls-7" d="M106.535,81.987c-.293.335-.545.988-.147,1.185.769.38,1.763-1.255.513-3.053,0,0,.467.913-.366,1.868Z"/>
            </g>
          </g>
          <g>
            <path class="cls-7" d="M67.59,65.916c-.826,0-1.496.67-1.496,1.496s.67,1.496,1.496,1.496,1.496-.67,1.496-1.496-.67-1.496-1.496-1.496Z"/>
            <path class="cls-7" d="M105.68,104.006c-.826,0-1.496.67-1.496,1.496s.67,1.496,1.496,1.496,1.496-.67,1.496-1.496-.67-1.496-1.496-1.496Z"/>
          </g>
          <g>
            <path class="cls-7" d="M105.68,65.916c-.826,0-1.496.67-1.496,1.496s.67,1.496,1.496,1.496,1.496-.67,1.496-1.496-.67-1.496-1.496-1.496Z"/>
            <path class="cls-7" d="M67.59,104.006c-.826,0-1.496.67-1.496,1.496s.67,1.496,1.496,1.496,1.496-.67,1.496-1.496-.67-1.496-1.496-1.496Z"/>
          </g>
          <g>
            <g>
              <g>
                <path class="cls-6" d="M0,50.981c-1.575,0-1.28,6.131-1.128,8.381S0,78.671,0,78.671C0,77.914.975,61.612,1.127,59.362S1.575,50.981,0,50.981Z"/>
                <path class="cls-6" d="M6.933,75.023c-.468.527-4.275,4.627-4.275,4.627,0,0,4.492-3.296,5.067-3.698.575-.402,2.099-1.546,1.546-2.195-.553-.65-1.87.738-2.338,1.265Z"/>
                <path class="cls-6" d="M-9.271,73.757c-.553.649.971,1.793,1.546,2.195.575.402,5.067,3.698,5.067,3.698,0,0-3.807-4.1-4.275-4.627-.468-.527-1.785-1.915-2.338-1.265Z"/>
                <path class="cls-6" d="M6.817,62.808c-1.2-.408-2.151,3.129-2.467,4.438-.316,1.309-3.009,11.671-3.009,11.671,0,0,4.179-9.856,4.727-11.086.548-1.23,1.949-4.614.749-5.022Z"/>
                <path class="cls-6" d="M-6.818,62.808c-1.2.408.201,3.792.749,5.022.548,1.23,4.727,11.086,4.727,11.086,0,0-2.693-10.361-3.009-11.671-.316-1.309-1.267-4.846-2.467-4.438Z"/>
                <circle class="cls-6" cx="0" cy="81.752" r="1.254"/>
              </g>
              <g>
                <path class="cls-6" d="M0,94.243C0,95-.975,111.302-1.128,113.552S-1.576,121.933,0,121.933s1.28-6.131,1.127-8.381S0,94.243,0,94.243Z"/>
                <path class="cls-6" d="M-9.271,99.157c.553.65,1.87-.738,2.338-1.266.468-.527,4.275-4.627,4.275-4.627,0,0-4.492,3.296-5.067,3.697-.575.402-2.099,1.546-1.546,2.195Z"/>
                <path class="cls-6" d="M7.725,96.961c-.575-.402-5.067-3.697-5.067-3.697,0,0,3.807,4.1,4.275,4.627.468.527,1.784,1.915,2.338,1.266.553-.65-.971-1.793-1.546-2.195Z"/>
                <path class="cls-6" d="M-6.818,110.105c1.2.408,2.151-3.129,2.467-4.438s3.009-11.67,3.009-11.67c0,0-4.179,9.856-4.727,11.086-.548,1.231-1.949,4.614-.749,5.022Z"/>
                <path class="cls-6" d="M1.342,93.997s2.693,10.361,3.009,11.67,1.267,4.846,2.467,4.438-.201-3.792-.749-5.022c-.548-1.23-4.727-11.086-4.727-11.086Z"/>
                <circle class="cls-6" cx="0" cy="91.162" r="1.254"/>
              </g>
              <g>
                <path class="cls-6" d="M27.095,85.329c-2.25.152-18.553,1.128-19.31,1.128,0,0,17.06.975,19.31,1.127,2.25.152,8.381.448,8.381-1.127s-6.131-1.28-8.381-1.128Z"/>
                <path class="cls-6" d="M10.504,78.732c-.402.575-3.697,5.067-3.697,5.067,0,0,4.1-3.807,4.627-4.275.527-.468,1.915-1.785,1.266-2.338-.65-.553-1.793.971-2.195,1.546Z"/>
                <path class="cls-6" d="M11.434,93.39c-.527-.468-4.627-4.275-4.627-4.275,0,0,3.296,4.492,3.697,5.067.402.575,1.546,2.099,2.195,1.546.65-.553-.738-1.87-1.266-2.338Z"/>
                <path class="cls-6" d="M18.626,80.388c-1.23.548-11.086,4.727-11.086,4.727,0,0,10.361-2.693,11.671-3.009,1.309-.316,4.846-1.267,4.438-2.467-.408-1.2-3.792.201-5.022.749Z"/>
                <path class="cls-6" d="M19.21,90.807c-1.309-.316-11.671-3.009-11.671-3.009,0,0,9.856,4.179,11.086,4.727,1.231.548,4.614,1.949,5.022.749.408-1.201-3.129-2.152-4.438-2.467Z"/>
                <circle class="cls-6" cx="4.705" cy="86.457" r="1.254"/>
              </g>
              <g>
                <path class="cls-6" d="M-35.476,86.457c0,1.575,6.131,1.28,8.381,1.127,2.25-.152,18.553-1.127,19.31-1.127,0,0-17.06-.975-19.31-1.128s-8.381-.448-8.381,1.128Z"/>
                <path class="cls-6" d="M-12.7,95.728c.649.553,1.793-.971,2.195-1.546s3.697-5.067,3.697-5.067c0,0-4.1,3.807-4.627,4.275-.527.468-1.915,1.785-1.265,2.338Z"/>
                <path class="cls-6" d="M-12.7,77.186c-.65.553.738,1.87,1.265,2.338.527.468,4.627,4.275,4.627,4.275,0,0-3.296-4.492-3.697-5.067-.402-.575-1.546-2.099-2.195-1.546Z"/>
                <path class="cls-6" d="M-23.648,93.274c.408,1.2,3.792-.201,5.022-.749,1.231-.548,11.087-4.727,11.087-4.727,0,0-10.361,2.693-11.671,3.009s-4.846,1.267-4.438,2.467Z"/>
                <path class="cls-6" d="M-23.648,79.639c-.408,1.2,3.129,2.151,4.438,2.467,1.309.315,11.671,3.009,11.671,3.009,0,0-9.856-4.179-11.087-4.727-1.23-.548-4.614-1.949-5.022-.749Z"/>
                <circle class="cls-6" cx="-4.705" cy="86.457" r="1.254"/>
              </g>
            </g>
            <circle class="cls-5" cx="0" cy="86.457" r="2.16"/>
          </g>
          <line class="cls-2" x1="22.975" y1="22.699" x2="40.669" y2="40.392"/>
          <line class="cls-2" x1="45.761" y1="45.484" x2="63.454" y2="63.178"/>
          <line class="cls-2" x1="40.669" y1="45.72" x2="13.436" y2="72.953"/>
          <line class="cls-2" x1="73.111" y1="13.278" x2="45.879" y2="40.51"/>
          <line class="cls-2" x1="149.984" y1="22.699" x2="132.29" y2="40.392"/>
          <line class="cls-2" x1="127.198" y1="45.484" x2="109.504" y2="63.178"/>
          <line class="cls-2" x1="132.29" y1="45.72" x2="159.522" y2="72.953"/>
          <line class="cls-2" x1="99.848" y1="13.278" x2="127.08" y2="40.51"/>
        </g>
        <g>
          <g>
            <path class="cls-7" d="M173.091-1.22c-.674,0-1.22.546-1.22,1.22s.546,1.22,1.22,1.22,1.22-.546,1.22-1.22-.546-1.22-1.22-1.22Z"/>
            <g>
              <path class="cls-7" d="M173.091,2.61s-.268,17.295-1.138,24.037c-.816,6.325.094,8.813,1.138,8.813s1.954-2.488,1.138-8.813c-.87-6.742-1.138-24.037-1.138-24.037Z"/>
              <path class="cls-7" d="M163.881,19.467c-1.541,1.141-3.587,2.326-3.015,3.203.412.631,2.13.324,4.424-2.332,5.074-5.873,5.676-13.247,5.676-13.247-.676,3.286-2.729,9.15-7.086,12.375Z"/>
              <path class="cls-3" d="M164.223,17.837c-1.411-1.864-2.248-4.186-2.248-6.703,0-5.249,3.639-9.649,8.531-10.814"/>
              <path class="cls-7" d="M168.622,19.901c-.955.833-1.868.366-1.868.366,1.798,1.25,3.433.255,3.053-.513-.197-.398-.85-.146-1.185.147Z"/>
            </g>
            <g>
              <path class="cls-7" d="M137.631,0c0,1.043,2.488,1.954,8.813,1.138C153.186.268,170.481,0,170.481,0c0,0-17.295-.268-24.037-1.138-6.325-.816-8.813.094-8.813,1.138Z"/>
              <path class="cls-7" d="M150.421,12.225c.877.573,2.062-1.474,3.203-3.015,3.225-4.357,9.089-6.41,12.375-7.086,0,0-7.374.602-13.247,5.676-2.655,2.294-2.963,4.012-2.332,4.424Z"/>
              <path class="cls-3" d="M155.255,8.868c1.864,1.411,4.186,2.248,6.703,2.248,5.249,0,9.649-3.638,10.814-8.531"/>
              <path class="cls-7" d="M153.338,3.285c-.769-.38-1.763,1.255-.513,3.053,0,0-.467-.913.366-1.868.293-.335.545-.988.147-1.185Z"/>
            </g>
          </g>
          <path class="cls-7" d="M154.046,17.549c-.826,0-1.496.67-1.496,1.496s.67,1.496,1.496,1.496,1.496-.67,1.496-1.496-.67-1.496-1.496-1.496Z"/>
          <g>
            <g>
              <g>
                <path class="cls-6" d="M86.457,7.786c0,.757-.975,17.059-1.128,19.309s-.448,8.381,1.128,8.381,1.28-6.131,1.127-8.381-1.127-19.309-1.127-19.309Z"/>
                <path class="cls-6" d="M77.186,12.7c.553.649,1.87-.738,2.338-1.266.468-.527,4.275-4.627,4.275-4.627,0,0-4.492,3.296-5.067,3.697-.575.402-2.099,1.546-1.546,2.195Z"/>
                <path class="cls-6" d="M94.181,10.505c-.575-.402-5.067-3.697-5.067-3.697,0,0,3.807,4.1,4.275,4.627.468.527,1.784,1.915,2.338,1.266.553-.65-.971-1.793-1.546-2.195Z"/>
                <path class="cls-6" d="M79.639,23.649c1.201.408,2.152-3.129,2.467-4.438.316-1.309,3.009-11.67,3.009-11.67,0,0-4.179,9.856-4.727,11.086-.548,1.23-1.949,4.614-.749,5.022Z"/>
                <path class="cls-6" d="M87.798,7.54s2.693,10.361,3.009,11.67c.316,1.309,1.267,4.846,2.467,4.438,1.201-.408-.201-3.792-.749-5.022-.548-1.23-4.727-11.086-4.727-11.086Z"/>
                <circle class="cls-6" cx="86.457" cy="4.706" r="1.254"/>
              </g>
              <g>
                <path class="cls-6" d="M113.552-1.127C111.302-.975,94.999,0,94.242,0c0,0,17.06.975,19.31,1.127,2.25.152,8.381.448,8.381-1.127s-6.131-1.28-8.381-1.128Z"/>
                <path class="cls-6" d="M97.891,6.933c-.527-.468-4.627-4.275-4.627-4.275,0,0,3.296,4.492,3.697,5.067.402.575,1.546,2.099,2.195,1.546.65-.553-.738-1.87-1.265-2.338Z"/>
                <path class="cls-6" d="M105.667,4.351c-1.309-.316-11.671-3.009-11.671-3.009,0,0,9.856,4.179,11.086,4.727,1.23.548,4.614,1.949,5.022.749.408-1.2-3.129-2.151-4.438-2.467Z"/>
                <circle class="cls-6" cx="91.162" cy="0" r="1.254"/>
              </g>
              <g>
                <path class="cls-6" d="M50.98,0c0,1.575,6.131,1.28,8.381,1.127C61.611.975,77.914,0,78.671,0,78.671,0,61.611-.975,59.361-1.127c-2.25-.152-8.381-.448-8.381,1.128Z"/>
                <path class="cls-6" d="M73.757,9.271c.649.553,1.793-.971,2.195-1.546.402-.575,3.697-5.067,3.697-5.067,0,0-4.1,3.807-4.627,4.275-.527.468-1.915,1.785-1.265,2.338Z"/>
                <path class="cls-6" d="M62.808,6.818c.408,1.2,3.792-.201,5.022-.749,1.23-.548,11.086-4.727,11.086-4.727,0,0-10.361,2.693-11.671,3.009s-4.846,1.267-4.438,2.467Z"/>
                <circle class="cls-6" cx="81.751" cy="0" r="1.254"/>
              </g>
            </g>
            <circle class="cls-5" cx="86.457" cy="0" r="2.16"/>
          </g>
        </g>
        <g>
          <g>
            <path class="cls-7" d="M.178-1.22C-.496-1.22-1.042-.674-1.042,0S-.496,1.22.178,1.22,1.398.674,1.398,0,.852-1.22.178-1.22Z"/>
            <g>
              <path class="cls-7" d="M.178,2.61S-.09,19.905-.96,26.647c-.816,6.325.094,8.813,1.138,8.813s1.954-2.488,1.138-8.813C.446,19.905.178,2.61.178,2.61Z"/>
              <path class="cls-7" d="M9.388,19.467c-4.357-3.225-6.41-9.089-7.086-12.375,0,0,.602,7.374,5.676,13.247,2.294,2.655,4.012,2.963,4.424,2.332.573-.877-1.474-2.062-3.015-3.203Z"/>
              <path class="cls-3" d="M9.046,17.837c1.411-1.864,2.248-4.186,2.248-6.703C11.294,5.884,7.655,1.485,2.763.32"/>
              <path class="cls-7" d="M4.648,19.901c-.335-.293-.988-.545-1.185-.147-.381.769,1.255,1.763,3.053.513,0,0-.913.467-1.868-.366Z"/>
            </g>
            <path class="cls-3" d="M-17.659,8.868c1.864,1.411,4.186,2.248,6.703,2.248C-5.706,11.116-1.307,7.477-.141,2.585"/>
            <g>
              <path class="cls-7" d="M26.825-1.138C20.083-.268,2.788,0,2.788,0,2.788,0,20.083.268,26.825,1.138,33.15,1.954,35.638,1.044,35.638,0s-2.489-1.954-8.813-1.138Z"/>
              <path class="cls-7" d="M20.516,7.8C14.644,2.726,7.269,2.124,7.269,2.124c3.286.676,9.15,2.729,12.376,7.086,1.141,1.54,2.326,3.587,3.203,3.015.631-.412.324-2.13-2.332-4.424Z"/>
              <path class="cls-3" d="M18.015,8.868c-1.864,1.411-4.186,2.248-6.704,2.248C6.062,11.116,1.663,7.477.497,2.585"/>
              <path class="cls-7" d="M19.931,3.285c-.398.197-.146.85.147,1.185.833.954.366,1.868.366,1.868,1.25-1.798.256-3.433-.513-3.053Z"/>
            </g>
          </g>
          <path class="cls-7" d="M19.223,17.549c-.826,0-1.496.67-1.496,1.496s.67,1.496,1.496,1.496,1.496-.67,1.496-1.496-.67-1.496-1.496-1.496Z"/>
        </g>
      </g>
    </pattern>
  </defs>
  <g class="cls-9">
    <g id="Layer_1" data-name="Layer 1">
      <rect class="cls-8" width="1200" height="630" transform="translate(1200 630) rotate(180)"/>
      <rect class="cls-4" width="1200" height="630"/>
    </g>
  </g>
</svg>