<?xml version="1.0" encoding="UTF-8"?>
<svg id="Layer_2" data-name="Layer 2" xmlns="http://www.w3.org/2000/svg" viewBox="0 0 146.281 144.469">
  <defs>
    <style>
      .cls-1 {
        fill: none;
        stroke: #fffaf0;
        stroke-linecap: round;
        stroke-linejoin: round;
        stroke-width: 6.281px;
      }
    </style>
  </defs>
  <g id="Layer_1-2" data-name="Layer 1">
    <g>
      <path class="cls-1" d="M142.29,119.449c2.444,4.121-.689,9.317-5.48,9.317H40.828c-19.993,0-20.1-71.592-19.309-100.838.184-6.811,5.745-12.225,12.559-12.225h87.204c7.325,0,13.072,6.239,12.524,13.542-1.741,23.21-3.482,70.031,8.483,90.204Z"/>
      <path class="cls-1" d="M128.766,128.766c0,6.938-5.624,12.563-12.563,12.563H15.703c-6.938,0-12.563-5.624-12.563-12.563V34.547c0-6.938,5.624-12.563,12.563-12.563"/>
      <line class="cls-1" x1="47.11" y1="3.141" x2="47.11" y2="21.984"/>
      <line class="cls-1" x1="109.922" y1="3.141" x2="109.922" y2="21.984"/>
      <line class="cls-1" x1="53.391" y1="53.391" x2="59.672" y2="53.391"/>
      <line class="cls-1" x1="53.391" y1="72.235" x2="59.672" y2="72.235"/>
      <line class="cls-1" x1="53.391" y1="91.079" x2="59.672" y2="91.079"/>
      <line class="cls-1" x1="78.516" y1="53.391" x2="84.797" y2="53.391"/>
      <line class="cls-1" x1="78.516" y1="72.235" x2="84.797" y2="72.235"/>
      <line class="cls-1" x1="78.516" y1="91.079" x2="84.797" y2="91.079"/>
      <line class="cls-1" x1="103.641" y1="53.391" x2="109.922" y2="53.391"/>
      <line class="cls-1" x1="103.641" y1="72.235" x2="109.922" y2="72.235"/>
      <line class="cls-1" x1="103.641" y1="91.079" x2="109.922" y2="91.079"/>
    </g>
  </g>
</svg>