<?xml version="1.0" encoding="UTF-8"?>
<svg id="Layer_2" data-name="Layer 2" xmlns="http://www.w3.org/2000/svg" viewBox="0 0 146.087 122.308">
  <defs>
    <style>
      .cls-1 {
        fill: none;
        stroke: #fffaf0;
        stroke-linecap: round;
        stroke-linejoin: round;
        stroke-width: 6.087px;
      }
    </style>
  </defs>
  <g id="Layer_1-2" data-name="Layer 1">
    <g>
      <path class="cls-1" d="M54.783,21.304C26.209,21.304,3.043,40.38,3.043,63.913c0,13.265,7.362,25.109,18.901,32.926,2.415,10.129-2.832,16.998-12.814,21.857,17.519,2.092,30.094-1.507,36.522-12.174h9.13c28.575,0,51.739-19.075,51.739-42.609s-23.164-42.609-51.739-42.609Z"/>
      <path class="cls-1" d="M107.07,95.322c7.061,5.113,17.165,6.635,29.887,5.113-9.983-4.87-15.217-11.748-12.843-21.852,11.565-7.791,18.93-19.661,18.93-32.93,0-23.557-23.191-42.609-51.739-42.609-10.165,0-19.661,2.435-27.635,6.635"/>
    </g>
  </g>
</svg>