<?xml version="1.0" encoding="UTF-8"?>
<svg id="Layer_2" data-name="Layer 2" xmlns="http://www.w3.org/2000/svg" viewBox="0 0 112.469 146.223">
  <defs>
    <style>
      .cls-1 {
        fill: none;
        stroke: #fffaf0;
        stroke-linecap: round;
        stroke-linejoin: round;
        stroke-width: 6.223px;
      }
    </style>
  </defs>
  <g id="Layer_1-2" data-name="Layer 1">
    <g>
      <path class="cls-1" d="M56.377,55.992c1.323,30.872-11.122,49.54-37.335,56.003"/>
      <path class="cls-1" d="M9.562,88.141c12.445,0,22.443-9.723,21.925-25.927h0v-6.223c0-13.746,11.144-24.89,24.89-24.89h0c13.746,0,24.89,11.145,24.89,24.89.915,19.144-3.331,59.627-43.51,76.129"/>
      <path class="cls-1" d="M3.567,61.418c.024-.894.018-1.945-.034-3.166C2.285,29.072,24.93,4.401,54.113,3.149c29.281-1.081,53.861,21.402,55.107,50.582,1.635,38.206-11.295,69.403-35.812,89.38M3.111,65.544h0ZM7.86,60.184h0Z"/>
    </g>
  </g>
</svg>