<?xml version="1.0" encoding="UTF-8"?>
<svg id="Layer_2" data-name="Layer 2" xmlns="http://www.w3.org/2000/svg" viewBox="0 0 146.087 133.913">
  <defs>
    <style>
      .cls-1 {
        fill: none;
        stroke: #fffaf0;
        stroke-linecap: round;
        stroke-linejoin: round;
        stroke-width: 6.087px;
      }
    </style>
  </defs>
  <g id="Layer_1-2" data-name="Layer 1">
    <g>
      <path class="cls-1" d="M15.217,130.87h121.739c3.362,0,6.087-2.725,6.087-6.087V57.826c0-6.724-5.45-12.174-12.174-12.174H39.565c-6.724,0-12.174,5.45-12.174,12.173l-.002,54.783"/>
      <path class="cls-1" d="M27.391,57.826l-.002,60.871c0,6.722-5.45,12.172-12.172,12.172h0c-6.724,0-12.174-5.45-12.174-12.174V9.13c0-3.362,2.725-6.087,6.087-6.087h25.455c2.538,0,4.809,1.574,5.7,3.95l3.886,10.361c.891,2.376,3.162,3.95,5.699,3.95h68.825c6.724,0,12.174,5.45,12.174,12.174v12.176l-91.304-.002c-6.724,0-12.174,5.45-12.174,12.174Z"/>
    </g>
  </g>
</svg>