<?xml version="1.0" encoding="UTF-8"?>
<svg id="Layer_2" data-name="Layer 2" xmlns="http://www.w3.org/2000/svg" viewBox="0 0 136.518 146.087">
  <defs>
    <style>
      .cls-1 {
        fill: none;
        stroke: #fffaf0;
        stroke-linecap: round;
        stroke-linejoin: round;
        stroke-width: 6.087px;
      }
    </style>
  </defs>
  <g id="Layer_1-2" data-name="Layer 1">
    <g>
      <path class="cls-1" d="M131.815,53.68c-6.953,19.055-21.4,23.469-35.374,18.37-13.975-5.099-22.184-17.78-15.231-36.835C88.163,16.159,121.621,3.044,121.621,3.044c0,0,17.148,31.581,10.195,50.637Z"/>
      <path class="cls-1" d="M24.113,77.312c15.652,9.745,28.466,4.812,35.613-6.667,7.147-11.478,5.92-25.155-9.733-34.9-15.652-9.745-46.949-.391-46.949-.391,0,0,5.417,32.213,21.069,41.958Z"/>
      <path class="cls-1" d="M103.2,43.368c-5.805,7.248-39.711,59.59-22.066,99.675"/>
      <path class="cls-1" d="M38.525,63.912c16.8,4.626,31.105,21.974,38.835,39.079"/>
    </g>
  </g>
</svg>