<?xml version="1.0" encoding="UTF-8"?>
<svg id="Layer_2" data-name="Layer 2" xmlns="http://www.w3.org/2000/svg" viewBox="0 0 103.478 146.087">
  <defs>
    <style>
      .cls-1 {
        fill: none;
        stroke: #fffaf0;
        stroke-linecap: round;
        stroke-linejoin: round;
        stroke-width: 6.087px;
      }
    </style>
  </defs>
  <g id="Layer_1-2" data-name="Layer 1">
    <g>
      <path class="cls-1" d="M100.435,51.739C100.435,23.012,75.562.098,46.179,3.352,24.77,5.724,6.962,22.651,3.652,43.936c-2.848,18.314,4.538,35.052,17.297,45.474,3.946,3.224,6.443,7.877,6.443,12.972v4.14c0,6.724,5.45,12.174,12.174,12.174h24.348c6.724,0,12.174-5.45,12.174-12.174v-4.148c0-5.079,2.477-9.729,6.413-12.939,10.938-8.92,17.935-22.479,17.935-37.696Z"/>
      <line class="cls-1" x1="33.478" y1="130.87" x2="70" y2="130.87"/>
      <line class="cls-1" x1="39.565" y1="143.043" x2="63.913" y2="143.043"/>
      <line class="cls-1" x1="51.739" y1="51.739" x2="51.739" y2="100.435"/>
      <polyline class="cls-1" points="33.478 39.565 51.739 51.739 70 39.565"/>
    </g>
  </g>
</svg>