<?xml version="1.0" encoding="UTF-8"?>
<svg id="Layer_2" data-name="Layer 2" xmlns="http://www.w3.org/2000/svg" viewBox="0 0 146.087 144.675">
  <defs>
    <style>
      .cls-1 {
        fill: #fffaf0;
      }

      .cls-2 {
        fill: none;
        stroke: #fffaf0;
        stroke-linecap: round;
        stroke-linejoin: round;
        stroke-width: 6.087px;
      }
    </style>
  </defs>
  <g id="Layer_1-2" data-name="Layer 1">
    <g>
      <path class="cls-2" d="M130.87,33.478c0,14.019-20.305,37.462-28.248,47.136-1.739,2.118-5.07,2.118-6.809,0-7.943-9.675-25.813-33.117-25.813-47.136,0-17.702,15.307-30.435,30.435-30.435s30.435,12.733,30.435,30.435Z"/>
      <g>
        <path class="cls-2" d="M143.043,36.622v80.133c0,4.87-2.902,9.271-7.379,11.19l-28.491,12.21c-4.325,1.853-9.199,1.966-13.605.313l-35.418-13.282c-4.134-1.55-8.69-1.55-12.824,0l-34.06,12.772c-3.979,1.493-8.224-1.449-8.224-5.699V54.089c0-5.075,3.148-9.617,7.9-11.399l34.384-12.894"/>
        <line class="cls-2" x1="51.739" y1="45.652" x2="51.739" y2="112.609"/>
        <line class="cls-2" x1="100.435" y1="94.348" x2="100.435" y2="130.87"/>
      </g>
      <circle class="cls-1" cx="100.435" cy="33.478" r="9.13"/>
    </g>
  </g>
</svg>