<?xml version="1.0" encoding="UTF-8"?>
<svg id="Layer_2" data-name="Layer 2" xmlns="http://www.w3.org/2000/svg" viewBox="0 0 146.06 146.087">
  <defs>
    <style>
      .cls-1 {
        fill: none;
        stroke: #fffaf0;
        stroke-linecap: round;
        stroke-linejoin: round;
        stroke-width: 6.087px;
      }
    </style>
  </defs>
  <g id="Layer_1-2" data-name="Layer 1">
    <g>
      <path class="cls-1" d="M130.87,3.043v67.717c.782,20.515,5.588,42.712,10.938,50.503,2.775,4.042.547,9.606-4.355,9.606H47.497c-5.822,0-11.405-2.673-14.75-7.438-7.628-10.863-11.442-30.035-11.442-53.431V3.043"/>
      <path class="cls-1" d="M124.783,130.87c0,6.724-5.45,12.174-12.174,12.174H15.217c-6.724,0-12.174-5.45-12.174-12.174V33.478c0-6.724,5.45-12.174,12.174-12.174"/>
      <polyline class="cls-1" points="130.87 3.043 109.028 15.217 90.23 3.043 71.432 15.217 52.635 3.043 40.102 15.217 21.304 3.043"/>
      <g>
        <path class="cls-1" d="M76.087,70c-8.404,0-15.217-6.813-15.217-15.217s6.813-15.217,15.217-15.217,15.217,6.813,15.217,15.217"/>
        <path class="cls-1" d="M76.087,70c8.404,0,15.217,6.813,15.217,15.217s-6.813,15.217-15.217,15.217-15.217-6.813-15.217-15.217"/>
        <line class="cls-1" x1="76.087" y1="106.522" x2="76.087" y2="100.435"/>
        <line class="cls-1" x1="76.087" y1="39.565" x2="76.087" y2="33.478"/>
      </g>
    </g>
  </g>
</svg>