<?xml version="1.0" encoding="UTF-8"?>
<svg id="Layer_2" data-name="Layer 2" xmlns="http://www.w3.org/2000/svg" viewBox="0 0 134.939 146.11">
  <defs>
    <style>
      .cls-1 {
        fill: none;
        stroke: #fffaf0;
        stroke-linecap: round;
        stroke-linejoin: round;
        stroke-width: 6.11px;
      }
    </style>
  </defs>
  <g id="Layer_1-2" data-name="Layer 1">
    <g>
      <path class="cls-1" d="M113.554,106.396h-21.384c-5.061,0-9.165,4.103-9.165,9.165h0c0,5.061,4.103,9.165,9.165,9.165h30.549c5.061,0,9.165,4.103,9.165,9.165h0c0,5.061-4.103,9.165-9.165,9.165H15.799"/>
      <g>
        <path class="cls-1" d="M37.546,112.242l-34.491,6.899,6.899-34.491L85.833,8.769c7.619-7.619,19.973-7.619,27.593,0h0c7.619,7.619,7.619,19.973,0,27.593L37.546,112.242Z"/>
        <line class="cls-1" x1="78.935" y1="15.668" x2="106.527" y2="43.26"/>
        <line class="cls-1" x1="9.953" y1="84.649" x2="37.546" y2="112.242"/>
      </g>
    </g>
  </g>
</svg>